<svg fill="none" height="24" viewBox="0 0 24 24" width="24" xmlns="http://www.w3.org/2000/svg"><g fill="#1c274c"><path d="m11 10h2c1.4142 0 2.1213 0 2.5607.4393.4393.4394.4393 1.1465.4393 2.5607v6c0-1.4142 0-2.1213.4393-2.5607.4394-.4393 1.1465-.4393 2.5607-.4393s2.1213 0 2.5607.4393c.4393.4394.4393 1.1465.4393 2.5607v3h-6-8-6c0-1.4142 0-2.1213.43934-2.5607.43934-.4393 1.14645-.4393 2.56066-.4393s2.12132 0 2.56066.4393c.43934.4394.43934 1.1465.43934 2.5607v-9c0-1.4142 0-2.1213.43934-2.5607.43934-.4393 1.14645-.4393 2.56066-.4393z"/><path d="m11.1459 3.02251c.38-.68167.57-1.02251.8541-1.02251s.4741.34084.8541 1.02251l.0983.17636c.1079.19371.1619.29057.2461.35447.0842.06391.189.08763.3987.13507l.1909.0432c.7379.16696 1.1069.25044 1.1947.53271s-.1638.5764-.6668 1.16466l-.1302.15219c-.1429.16716-.2144.25074-.2466.35414-.0321.10341-.0213.21492.0003.43796l.0197.20305c.076.78486.1141 1.17729-.1157 1.35175-.2299.17445-.5753.01539-1.2662-.30272l-.1787-.0823c-.1964-.0904-.2945-.1356-.3986-.1356s-.2022.0452-.3986.1356l-.1787.0823c-.6909.31811-1.0363.47717-1.2662.30272-.22976-.17446-.19174-.56689-.1157-1.35175l.0197-.20305c.0216-.22304.0324-.33455.0003-.43796-.0322-.1034-.10367-.18698-.24662-.35414l-.13015-.15219c-.50306-.58826-.75458-.88239-.6668-1.16466s.45673-.36575 1.19467-.53271l.1909-.0432c.2097-.04744.3145-.07116.3987-.13507.0842-.0639.1382-.16076.2461-.35447z"/></g></svg>