<svg version="1.1" xmlns="http://www.w3.org/2000/svg" xmlns:xlink="http://www.w3.org/1999/xlink"
    x="0px" y="0px" style="enable-background:new 0 0 500 500;" xml:space="preserve"
    viewBox="191.9 119 116.34 87.6">  <g id="OBJECTS"> 	<g> 				<g> 			 				<linearGradient id="SVGID_00000046336690617898680040000005854115909637377206_" gradientUnits="userSpaceOnUse" x1="198.8638" y1="102.3071" x2="198.8638" y2="108.8067" gradientTransform="matrix(-0.0041 1 -1 -0.0041 390.7468 -36.8544)"> 				<stop offset="0" style="stop-color:#FFFFFF"></stop> 				<stop offset="1" style="stop-color:#CCCCCC"></stop> 			</linearGradient> 			<path style="fill:url(#SVGID_00000046336690617898680040000005854115909637377206_);" d="M304.352,201.708l-36.218-0.149 				l0.329-80.096l22.931,0.094c2.935,0.012,5.645,0.975,7.839,2.6c3.288,2.43,5.412,6.342,5.394,10.747L304.352,201.708z"></path> 			 				<linearGradient id="SVGID_00000182497895910162861090000010414083161159817356_" gradientUnits="userSpaceOnUse" x1="170.0642" y1="82.1421" x2="177.0016" y2="120.793" gradientTransform="matrix(-0.0041 1 -1 -0.0041 390.7468 -36.8544)"> 				<stop offset="0" style="stop-color:#666666"></stop> 				<stop offset="1" style="stop-color:#CCCCCC"></stop> 			</linearGradient> 			<path style="opacity:0.39;fill:url(#SVGID_00000182497895910162861090000010414083161159817356_);" d="M274.014,151.985 				c0.006-1.351,0.115-27.931,0.115-27.931l25.104,0.103c3.288,2.43,5.412,6.342,5.394,10.747l-0.003,0.724 				c-1.439-3.601-4.953-6.15-9.073-6.167l-0.049,0c-6.99-0.029-12.678,5.613-12.707,12.603l-0.041,9.957 				C282.755,152.021,274.009,153.336,274.014,151.985z"></path> 			<g> 				 					<linearGradient id="SVGID_00000178184379914606480080000013829404847177321908_" gradientUnits="userSpaceOnUse" x1="221.9814" y1="159.6647" x2="259.3457" y2="296.2063" gradientTransform="matrix(-0.71 0.7042 -0.7042 -0.71 547.8865 138.2246)"> 					<stop offset="0" style="stop-color:#3000FF"></stop> 					<stop offset="1" style="stop-color:#FF31B0"></stop> 				</linearGradient> 				<path style="fill:url(#SVGID_00000178184379914606480080000013829404847177321908_);" d="M191.896,203.993l0.01-2.388 					l0.293-68.88c0.031-7.613,6.221-13.753,13.835-13.721l76.767,0.306l8.826,0.036c9.208,0.048,16.644,7.545,16.606,16.743 					l-0.273,66.306c-0.014,1.145-0.948,2.07-2.083,2.066c-0.567-0.002-1.095-0.239-1.465-0.613c-0.38-0.383-0.613-0.893-0.601-1.47 					l0.277-67.304c0.012-2.896-1.151-5.543-3.052-7.459c-1.939-1.955-4.635-3.141-7.6-3.124c-5.803,0.064-10.413,4.967-10.427,10.77 					l-0.284,69.105L191.896,203.993z"></path> 				<g> 					 						<linearGradient id="SVGID_00000077320965307729342110000006238709332523270842_" gradientUnits="userSpaceOnUse" x1="262.8918" y1="246.106" x2="202.4621" y2="148.7724" gradientTransform="matrix(-0.71 0.7042 -0.7042 -0.71 547.8865 138.2246)"> 						<stop offset="0" style="stop-color:#2000A8"></stop> 						<stop offset="1" style="stop-color:#A82074;stop-opacity:0"></stop> 					</linearGradient> 					<path style="opacity:0.42;fill:url(#SVGID_00000077320965307729342110000006238709332523270842_);" d="M191.896,203.993 						l0.01-2.388L282.8,119.31l8.826,0.036c9.208,0.048,16.644,7.545,16.606,16.743l-0.273,66.306 						c-0.014,1.145-0.948,2.07-2.083,2.066c-0.567-0.002-1.095-0.239-1.465-0.613c-0.38-0.383-0.613-0.893-0.601-1.47l0.277-67.304 						c0.012-2.896-1.151-5.543-3.052-7.459c-1.939-1.955-4.635-3.141-7.6-3.124c-5.803,0.064-10.413,4.967-10.427,10.77 						l-0.284,69.105L191.896,203.993z"></path> 					<g style="opacity:0.85;"> 						 							<linearGradient id="SVGID_00000120525471936205586850000011968399356734129598_" gradientUnits="userSpaceOnUse" x1="152.7689" y1="178.781" x2="194.9324" y2="101.6614" gradientTransform="matrix(-0.0041 1 -1 -0.0041 390.7468 -36.8544)"> 							<stop offset="0" style="stop-color:#F1E2FF"></stop> 							<stop offset="1" style="stop-color:#F1E2FF;stop-opacity:0"></stop> 						</linearGradient> 						<path style="opacity:0.42;fill:url(#SVGID_00000120525471936205586850000011968399356734129598_);" d="M304.086,135.08 							l-0.277,67.301c-0.002,0.573,0.228,1.088,0.599,1.467c0.377,0.375,0.895,0.609,1.468,0.612c0.023,0,0.045-0.006,0.068-0.007 							c-0.103-0.247-0.16-0.518-0.158-0.803l0.277-67.301c0.012-2.908-1.156-5.551-3.056-7.467 							c-0.806-0.813-1.751-1.485-2.786-2.002c0.282,0.231,0.553,0.474,0.81,0.732C302.93,129.529,304.098,132.172,304.086,135.08z"></path> 						 							<linearGradient id="SVGID_00000008144332046071221860000006682864953230262952_" gradientUnits="userSpaceOnUse" x1="174.6798" y1="190.763" x2="216.8441" y2="113.642" gradientTransform="matrix(-0.0041 1 -1 -0.0041 390.7468 -36.8544)"> 							<stop offset="0" style="stop-color:#F1E2FF"></stop> 							<stop offset="1" style="stop-color:#F1E2FF;stop-opacity:0"></stop> 						</linearGradient> 						<path style="opacity:0.42;fill:url(#SVGID_00000008144332046071221860000006682864953230262952_);" d="M282.741,198.781 							l0.107-25.947l-88.834-0.365l0.158-38.471c0.031-7.611,6.23-13.759,13.841-13.728l85.588,0.352 							c2.865,0.012,5.558,0.747,7.908,2.03c-2.76-2.058-6.178-3.284-9.885-3.299L206.037,119 							c-7.611-0.031-13.81,6.117-13.841,13.728l-0.163,39.732l-0.107,25.947l-0.023,5.584l1.982,0.008l0.023-5.584L282.741,198.781z 							"></path> 					</g> 				</g> 			</g> 			<g> 				<g> 					 						<linearGradient id="SVGID_00000143598798231693571610000006060041287468133813_" gradientUnits="userSpaceOnUse" x1="224.3124" y1="128.0388" x2="231.1235" y2="165.9861" gradientTransform="matrix(-0.0041 1 -1 -0.0041 390.7468 -36.8544)"> 						<stop offset="0" style="stop-color:#0050BA"></stop> 						<stop offset="1" style="stop-color:#6CE4FF"></stop> 					</linearGradient> 					<polygon style="fill:url(#SVGID_00000143598798231693571610000006060041287468133813_);" points="256.059,206.601  						228.646,206.488 228.78,174.054 242.47,178.63 256.192,174.167 					"></polygon> 					 						<linearGradient id="SVGID_00000046320728157252115500000009760766908471969180_" gradientUnits="userSpaceOnUse" x1="216.0477" y1="168.1545" x2="231.5214" y2="140.7883" gradientTransform="matrix(-0.0041 1 -1 -0.0041 390.7468 -36.8544)"> 						<stop offset="0" style="stop-color:#D8F8FF"></stop> 						<stop offset="1" style="stop-color:#D8F8FF;stop-opacity:0"></stop> 					</linearGradient> 					<polygon style="fill:url(#SVGID_00000046320728157252115500000009760766908471969180_);" points="229.457,206.492  						228.646,206.488 228.78,174.054 242.47,178.63 256.192,174.167 256.186,175.481 243.276,179.682 229.586,175.101  						229.519,191.318 256.121,191.427 256.088,199.347 229.487,199.237 					"></polygon> 				</g> 				<polygon style="fill:#FFFFFF;" points="242.419,183.669 245.219,189.342 251.48,190.252 246.95,194.669 248.019,200.905  					242.419,197.96 236.819,200.905 237.888,194.669 233.358,190.252 239.619,189.342 				"></polygon> 			</g> 		</g> 	</g> 	 </g> </svg>